<svg xmlns="http://www.w3.org/2000/svg" viewBox="0 0 500 520"><g fill="#f1d39a"><path d="m95 70 7 21 22 7-22 7-7 21-7-21-22-7 22-7Z"/><path d="m414 372 8 24 24 8-24 8-8 24-8-24-24-8 24-8Z"/><circle cx="360" cy="71" r="5"/><circle cx="71" cy="330" r="6"/><circle cx="444" cy="195" r="4"/></g><circle cx="253" cy="250" r="130" fill="#e78c50"/><path d="M136 198q95-33 213 17M124 228q96-27 256 22M131 274q125-18 229 29M166 335q94-6 159 19" stroke="#efba79" stroke-width="19" fill="none"/><ellipse cx="250" cy="260" rx="224" ry="53" transform="rotate(-27 250 260)" stroke="#f6e4b8" stroke-width="21" fill="none"/><path d="M183 143q78-44 150 20" stroke="#e78c50" stroke-width="42" fill="none"/><g fill="#f6e4b8" font-family="Georgia,serif" font-weight="bold" text-anchor="middle"><text x="250" y="442" font-size="30" letter-spacing="5">OUT OF THIS</text><text x="250" y="484" font-size="42" letter-spacing="9">WORLD</text></g></svg>
